<?xml version="1.0" encoding="UTF-8"?>
<svg width="882px" height="977px" viewBox="0 0 882 977" version="1.1" xmlns="http://www.w3.org/2000/svg" xmlns:xlink="http://www.w3.org/1999/xlink">
    <title>48CCACEF-F1C4-4DA0-AAC4-D6BCA65CD683</title>
    <g id="Homepage" stroke="none" stroke-width="1" fill="none" fill-rule="evenodd">
        <g id="MD-Homepage-DE" transform="translate(46.000000, -846.000000)">
            <g id="Background-2" transform="translate(-34.000000, 846.000000)">
                <g id="Group-7" transform="translate(709.500000, 880.000000) rotate(-59.000000) translate(-709.500000, -880.000000) translate(648.000000, 810.000000)" stroke="#E1F9F0" stroke-linecap="round" stroke-linejoin="round" stroke-width="11.3131313">
                    <path d="M61.4921411,139.53933 L122.41733,105.043118 L122.521181,34.8442539 L61.3838709,69.340466 L61.4921411,139.53933 Z M122.525822,34.843591 L61.388511,69.3420127 L0.248990837,34.843591 L61.388511,0.347378903 L122.525822,34.843591 Z M61.4921411,139.53933 L0.354830484,105.043118 L0.248769878,34.8442539 L61.3882901,69.340466 L61.4921411,139.53933 Z" id="Stroke-6"></path>
                </g>
                <path d="M0,847 C0,819.384333 22.3843331,797 50,797 C77.6156669,797 100,819.384333 100,847 C100,874.615667 77.6156669,897 50,897 C22.3843331,897 0,874.615667 0,847 Z" id="Stroke-1" stroke="#FFE5E8" stroke-width="24"></path>
                <g id="Fill-428-Copy" transform="translate(449.000000, 0.000000)" fill="#FFF9E7">
                    <path d="M267.753095,341.731897 C270.229225,341.731897 272.237606,343.740278 272.237606,346.216408 C272.237606,348.689267 270.229225,350.697648 267.753095,350.697648 C265.276965,350.697648 263.271855,348.689267 263.271855,346.216408 C263.271855,343.740278 265.276965,341.731897 267.753095,341.731897 Z M38.5905282,341.435552 C41.067635,341.435552 43.0734035,343.441321 43.0734035,345.918428 C43.0734035,348.395534 41.067635,350.401303 38.5905282,350.401303 C36.1134213,350.401303 34.1076528,348.395534 34.1076528,345.918428 C34.1076528,343.441321 36.1134213,341.435552 38.5905282,341.435552 Z M243.218928,341.904624 C245.339888,341.904624 247.060192,343.736626 247.060192,346.001972 C247.060192,348.261341 245.339888,350.096332 243.218928,350.096332 C241.097967,350.096332 239.380466,348.261341 239.380466,346.001972 C239.380466,343.736626 241.097967,341.904624 243.218928,341.904624 Z M382.4167,340.762081 C384.892343,340.762081 386.897885,342.771004 386.897885,345.246647 C386.897885,347.72229 384.892343,349.727831 382.4167,349.727831 C379.941057,349.727831 377.932134,347.72229 377.932134,345.246647 C377.932134,342.771004 379.941057,340.762081 382.4167,340.762081 Z M220.644481,340.684424 C223.120611,340.684424 225.125721,342.692805 225.125721,345.168935 C225.125721,347.641794 223.120611,349.650175 220.644481,349.650175 C218.168351,349.650175 216.15997,347.641794 216.15997,345.168935 C216.15997,342.692805 218.168351,340.684424 220.644481,340.684424 Z M339.776715,340.027317 C342.252845,340.027317 344.257955,342.032427 344.257955,344.508557 C344.257955,346.984688 342.252845,348.993068 339.776715,348.993068 C337.300584,348.993068 335.292204,346.984688 335.292204,344.508557 C335.292204,342.032427 337.300584,340.027317 339.776715,340.027317 Z M112.845219,339.887327 C115.321349,339.887327 117.32973,341.892437 117.32973,344.368567 C117.32973,346.844698 115.321349,348.853078 112.845219,348.853078 C110.369089,348.853078 108.363979,346.844698 108.363979,344.368567 C108.363979,341.892437 110.369089,339.887327 112.845219,339.887327 Z M362.29121,339.354888 C364.766438,339.354888 366.774086,341.363268 366.774086,343.836128 C366.774086,346.312258 364.766438,348.320638 362.29121,348.320638 C359.815983,348.320638 357.808335,346.312258 357.808335,343.836128 C357.808335,341.363268 359.815983,339.354888 362.29121,339.354888 Z M200.519047,339.277231 C202.994274,339.277231 205.001922,341.282341 205.001922,343.758471 C205.001922,346.234601 202.994274,348.242982 200.519047,348.242982 C198.043819,348.242982 196.036171,346.234601 196.036171,343.758471 C196.036171,341.282341 198.043819,339.277231 200.519047,339.277231 Z M135.364621,339.214898 C137.837481,339.214898 139.845861,341.220007 139.845861,343.696137 C139.845861,346.172268 137.837481,348.180648 135.364621,348.180648 C132.888491,348.180648 130.88011,346.172268 130.88011,343.696137 C130.88011,341.220007 132.888491,339.214898 135.364621,339.214898 Z M292.66483,338.979845 C295.14096,338.979845 297.14607,340.984954 297.14607,343.461084 C297.14607,345.937215 295.14096,347.945595 292.66483,347.945595 C290.188699,347.945595 288.180319,345.937215 288.180319,343.461084 C288.180319,340.984954 290.188699,338.979845 292.66483,338.979845 Z M63.4973563,338.6835 C65.9734866,338.6835 67.9818671,340.69188 67.9818671,343.16801 C67.9818671,345.64087 65.9734866,347.64925 63.4973563,347.64925 C61.0212259,347.64925 59.0161164,345.64087 59.0161164,343.16801 C59.0161164,340.69188 61.0212259,338.6835 63.4973563,338.6835 Z M157.877481,338.542468 C160.353612,338.542468 162.361992,340.547577 162.361992,343.026979 C162.361992,345.499838 160.353612,347.508218 157.877481,347.508218 C155.401351,347.508218 153.396242,345.499838 153.396242,343.026979 C153.396242,340.547577 155.401351,338.542468 157.877481,338.542468 Z M315.180961,338.307415 C317.657091,338.307415 319.662201,340.312524 319.662201,342.788655 C319.662201,345.264785 317.657091,347.273165 315.180961,347.273165 C312.70483,347.273165 310.69645,345.264785 310.69645,342.788655 C310.69645,340.312524 312.70483,338.307415 315.180961,338.307415 Z M88.252736,338.167425 C90.7288664,338.167425 92.7339759,340.175805 92.7339759,342.651935 C92.7339759,345.124795 90.7288664,347.133175 88.252736,347.133175 C85.7766057,347.133175 83.7682252,345.124795 83.7682252,342.651935 C83.7682252,340.175805 85.7766057,338.167425 88.252736,338.167425 Z M178.157635,337.713683 C180.633765,337.713683 182.642146,339.722064 182.642146,342.198194 C182.642146,344.671053 180.633765,346.679434 178.157635,346.679434 C175.681505,346.679434 173.676395,344.671053 173.676395,342.198194 C173.676395,339.722064 175.681505,337.713683 178.157635,337.713683 Z M275.555512,326.549118 C278.031642,326.549118 280.040022,328.557499 280.040022,331.033629 C280.040022,333.506488 278.031642,335.514869 275.555512,335.514869 C273.079381,335.514869 271.074272,333.506488 271.074272,331.033629 C271.074272,328.557499 273.079381,326.549118 275.555512,326.549118 Z M253.199006,324.98557 C255.675136,324.98557 257.680246,326.99068 257.680246,329.46681 C257.680246,331.94294 255.675136,333.951321 253.199006,333.951321 C250.722876,333.951321 248.714495,331.94294 248.714495,329.46681 C248.714495,326.99068 250.722876,324.98557 253.199006,324.98557 Z M48.7836415,324.17315 C51.2597719,324.17315 53.2681524,326.181531 53.2681524,328.657661 C53.2681524,331.13052 51.2597719,333.138901 48.7836415,333.138901 C46.3075112,333.138901 44.3024017,331.13052 44.3024017,328.657661 C44.3024017,326.181531 46.3075112,324.17315 48.7836415,324.17315 Z M327.453697,323.437345 C329.928924,323.437345 331.936572,325.442455 331.936572,327.921856 C331.936572,330.394715 329.928924,332.403096 327.453697,332.403096 C324.97847,332.403096 322.970822,330.394715 322.970822,327.921856 C322.970822,325.442455 324.97847,323.437345 327.453697,323.437345 Z M230.83923,323.422022 C233.31536,323.422022 235.32047,325.430403 235.32047,327.906533 C235.32047,330.379392 233.31536,332.387773 230.83923,332.387773 C228.363099,332.387773 226.354719,330.379392 226.354719,327.906533 C226.354719,325.430403 228.363099,323.422022 230.83923,323.422022 Z M210.713796,322.014829 C213.189023,322.014829 215.196671,324.02321 215.196671,326.49934 C215.196671,328.972199 213.189023,330.98058 210.713796,330.98058 C208.238568,330.98058 206.23092,328.972199 206.23092,326.49934 C206.23092,324.02321 208.238568,322.014829 210.713796,322.014829 Z M305.093921,321.873797 C307.569148,321.873797 309.576796,323.882178 309.576796,326.358308 C309.576796,328.831168 307.569148,330.839548 305.093921,330.839548 C302.618693,330.839548 300.611045,328.831168 300.611045,326.358308 C300.611045,323.882178 302.618693,321.873797 305.093921,321.873797 Z M107.388124,321.530442 C109.864255,321.530442 111.872635,323.535551 111.872635,326.011682 C111.872635,328.487812 109.864255,330.496193 107.388124,330.496193 C104.911994,330.496193 102.906885,328.487812 102.906885,326.011682 C102.906885,323.535551 104.911994,321.530442 107.388124,321.530442 Z M168.073866,321.280066 C170.549093,321.280066 172.556741,323.288446 172.556741,325.764577 C172.556741,328.237436 170.549093,330.245817 168.073866,330.245817 C165.598638,330.245817 163.59099,328.237436 163.59099,325.764577 C163.59099,323.288446 165.598638,321.280066 168.073866,321.280066 Z M71.4593985,321.264743 C73.9355288,321.264743 75.9406383,323.269852 75.9406383,325.745983 C75.9406383,328.222113 73.9355288,330.230494 71.4593985,330.230494 C68.9832681,330.230494 66.9748876,328.222113 66.9748876,325.745983 C66.9748876,323.269852 68.9832681,321.264743 71.4593985,321.264743 Z M127.668278,320.701657 C130.144408,320.701657 132.152789,322.706767 132.152789,325.182897 C132.152789,327.659027 130.144408,329.667408 127.668278,329.667408 C125.192148,329.667408 123.187038,327.659027 123.187038,325.182897 C123.187038,322.706767 125.192148,320.701657 127.668278,320.701657 Z M190.588361,320.607636 C193.064492,320.607636 195.072872,322.612746 195.072872,325.092147 C195.072872,327.565006 193.064492,329.573387 190.588361,329.573387 C188.112231,329.573387 186.107122,327.565006 186.107122,325.092147 C186.107122,322.612746 188.112231,320.607636 190.588361,320.607636 Z M350.126183,320.528938 C352.60141,320.528938 354.609058,322.537318 354.609058,325.013449 C354.609058,327.486308 352.60141,329.494689 350.126183,329.494689 C347.650956,329.494689 345.643308,327.486308 345.643308,325.013449 C345.643308,322.537318 347.650956,320.528938 350.126183,320.528938 Z M147.951702,319.872873 C150.427833,319.872873 152.432942,321.877982 152.432942,324.357384 C152.432942,326.830243 150.427833,328.838623 147.951702,328.838623 C145.475572,328.838623 143.467192,326.830243 143.467192,324.357384 C143.467192,321.877982 145.475572,319.872873 147.951702,319.872873 Z M368.170359,319.543799 C370.647214,319.543799 372.653234,321.549819 372.653234,324.026674 C372.653234,326.500213 370.647214,328.509549 368.170359,328.509549 C365.69682,328.509549 363.687484,326.500213 363.687484,324.026674 C363.687484,321.549819 365.69682,319.543799 368.170359,319.543799 Z M89.6582936,318.043626 C92.1335209,318.043626 94.141169,320.052006 94.141169,322.528137 C94.141169,325.000996 92.1335209,327.009377 89.6582936,327.009377 C87.1830663,327.009377 85.1754183,325.000996 85.1754183,322.528137 C85.1754183,320.052006 87.1830663,318.043626 89.6582936,318.043626 Z M287.676799,313.915026 C290.15293,313.915026 292.158039,315.920136 292.158039,318.399537 C292.158039,320.872396 290.15293,322.880777 287.676799,322.880777 C285.200669,322.880777 283.192289,320.872396 283.192289,318.399537 C283.192289,315.920136 285.200669,313.915026 287.676799,313.915026 Z M263.234129,309.959146 C265.71026,309.959146 267.71864,311.967526 267.71864,314.443657 C267.71864,316.916516 265.71026,318.924897 263.234129,318.924897 C260.757999,318.924897 258.752889,316.916516 258.752889,314.443657 C258.752889,311.967526 260.757999,309.959146 263.234129,309.959146 Z M243.113601,308.551953 C245.589732,308.551953 247.594841,310.560333 247.594841,313.036464 C247.594841,315.509323 245.589732,317.517703 243.113601,317.517703 C240.637471,317.517703 238.629091,315.509323 238.629091,313.036464 C238.629091,310.560333 240.637471,308.551953 243.113601,308.551953 Z M220.75219,306.988405 C223.227417,306.988405 225.235065,308.996785 225.235065,311.472916 C225.235065,313.945775 223.227417,315.954156 220.75219,315.954156 C218.276962,315.954156 216.269314,313.945775 216.269314,311.472916 C216.269314,308.996785 218.276962,306.988405 220.75219,306.988405 Z M337.650081,306.174943 C340.126212,306.174943 342.131321,308.180053 342.131321,310.656183 C342.131321,313.132313 340.126212,315.140694 337.650081,315.140694 C335.173951,315.140694 333.165571,313.132313 333.165571,310.656183 C333.165571,308.180053 335.173951,306.174943 337.650081,306.174943 Z M317.524647,304.76775 C319.999874,304.76775 322.007522,306.776131 322.007522,309.252261 C322.007522,311.72512 319.999874,313.733501 317.524647,313.733501 C315.04942,313.733501 313.041772,311.72512 313.041772,309.252261 C313.041772,306.776131 315.04942,304.76775 317.524647,304.76775 Z M56.900403,304.518416 C59.3740695,304.518416 61.3832784,306.524184 61.3832784,309.001291 C61.3832784,311.478398 59.3740695,313.484167 56.900403,313.484167 C54.4232962,313.484167 52.4175277,311.478398 52.4175277,309.001291 C52.4175277,306.524184 54.4232962,304.518416 56.900403,304.518416 Z M180.506228,304.174019 C182.979087,304.174019 184.987468,306.182399 184.987468,308.65853 C184.987468,311.131389 182.979087,313.139769 180.506228,313.139769 C178.030097,313.139769 176.021717,311.131389 176.021717,308.65853 C176.021717,306.182399 178.030097,304.174019 180.506228,304.174019 Z M200.78311,303.345234 C203.259241,303.345234 205.267621,305.353615 205.267621,307.829745 C205.267621,310.302604 203.259241,312.310985 200.78311,312.310985 C198.30698,312.310985 196.30187,310.302604 196.30187,307.829745 C196.30187,305.353615 198.30698,303.345234 200.78311,303.345234 Z M160.380793,302.766826 C162.856021,302.766826 164.863669,304.771935 164.863669,307.248065 C164.863669,309.724196 162.856021,311.732576 160.380793,311.732576 C157.905566,311.732576 155.897918,309.724196 155.897918,307.248065 C155.897918,304.771935 157.905566,302.766826 160.380793,302.766826 Z M119.975206,302.188417 C122.451336,302.188417 124.459717,304.193527 124.459717,306.669657 C124.459717,309.145787 122.451336,311.154168 119.975206,311.154168 C117.499075,311.154168 115.493966,309.145787 115.493966,306.669657 C115.493966,304.193527 117.499075,302.188417 119.975206,302.188417 Z M79.5712535,301.610009 C82.0473838,301.610009 84.0557643,303.618389 84.0557643,306.094519 C84.0557643,308.567379 82.0473838,310.575759 79.5712535,310.575759 C77.0951231,310.575759 75.0900136,308.567379 75.0900136,306.094519 C75.0900136,303.618389 77.0951231,301.610009 79.5712535,301.610009 Z M140.25863,301.359633 C142.734761,301.359633 144.73987,303.364742 144.73987,305.844143 C144.73987,308.317003 142.734761,310.325383 140.25863,310.325383 C137.7825,310.325383 135.774119,308.317003 135.774119,305.844143 C135.774119,303.364742 137.7825,301.359633 140.25863,301.359633 Z M297.558839,301.124579 C300.034969,301.124579 302.040079,303.129689 302.040079,305.60909 C302.040079,308.08195 300.034969,310.09033 297.558839,310.09033 C295.082708,310.09033 293.074328,308.08195 293.074328,305.60909 C293.074328,303.129689 295.082708,301.124579 297.558839,301.124579 Z M99.8530425,300.781224 C102.32827,300.781224 104.335918,302.786333 104.335918,305.262464 C104.335918,307.738594 102.32827,309.746975 99.8530425,309.746975 C97.3778152,309.746975 95.3701671,307.738594 95.3701671,305.262464 C95.3701671,302.786333 97.3778152,300.781224 99.8530425,300.781224 Z M356.160051,298.481871 C358.636181,298.481871 360.644561,300.490252 360.644561,302.966382 C360.644561,305.439241 358.636181,307.447622 356.160051,307.447622 C353.687191,307.447622 351.678811,305.439241 351.678811,302.966382 C351.678811,300.490252 353.687191,298.481871 356.160051,298.481871 Z M277.589759,297.481409 C280.064987,297.481409 282.072635,299.486518 282.072635,301.962649 C282.072635,304.438779 280.064987,306.447159 277.589759,306.447159 C275.114532,306.447159 273.106884,304.438779 273.106884,301.962649 C273.106884,299.486518 275.114532,297.481409 277.589759,297.481409 Z M255.386338,293.681883 C257.861565,293.681883 259.869213,295.686993 259.869213,298.163123 C259.869213,300.639253 257.861565,302.647634 255.386338,302.647634 C252.91111,302.647634 250.903462,300.639253 250.903462,298.163123 C250.903462,295.686993 252.91111,293.681883 255.386338,293.681883 Z M332.036632,290.054035 C334.512762,290.054035 336.517872,292.062416 336.517872,294.538546 C336.517872,297.011406 334.512762,299.019786 332.036632,299.019786 C329.560502,299.019786 327.552121,297.011406 327.552121,294.538546 C327.552121,292.062416 329.560502,290.054035 332.036632,290.054035 Z M233.184552,289.882358 C235.660682,289.882358 237.665791,291.887467 237.665791,294.363598 C237.665791,296.839728 235.660682,298.848108 233.184552,298.848108 C230.708421,298.848108 228.700041,296.839728 228.700041,294.363598 C228.700041,291.887467 230.708421,289.882358 233.184552,289.882358 Z M213.057482,288.475165 C215.533612,288.475165 217.541993,290.483545 217.541993,292.959675 C217.541993,295.432535 215.533612,297.440915 213.057482,297.440915 C210.581352,297.440915 208.576242,295.432535 208.576242,292.959675 C208.576242,290.483545 210.581352,288.475165 213.057482,288.475165 Z M190.700977,286.911617 C193.177107,286.911617 195.182216,288.919997 195.182216,291.396128 C195.182216,293.868987 193.177107,295.877367 190.700977,295.877367 C188.224846,295.877367 186.216466,293.868987 186.216466,291.396128 C186.216466,288.919997 188.224846,286.911617 190.700977,286.911617 Z M309.831575,286.25451 C312.306802,286.25451 314.31445,288.26289 314.31445,290.739021 C314.31445,293.21188 312.306802,295.220261 309.831575,295.220261 C307.356348,295.220261 305.3487,293.21188 305.3487,290.739021 C305.3487,288.26289 307.356348,286.25451 309.831575,286.25451 Z M170.577178,285.504424 C173.053308,285.504424 175.058418,287.512804 175.058418,289.988934 C175.058418,292.461794 173.053308,294.470174 170.577178,294.470174 C168.101047,294.470174 166.092667,292.461794 166.092667,289.988934 C166.092667,287.512804 168.101047,285.504424 170.577178,285.504424 Z M150.450108,284.097231 C152.926238,284.097231 154.934619,286.105611 154.934619,288.581741 C154.934619,291.054601 152.926238,293.062981 150.450108,293.062981 C147.973978,293.062981 145.968868,291.054601 145.968868,288.581741 C145.968868,286.105611 147.973978,284.097231 150.450108,284.097231 Z M130.32958,282.690037 C132.805711,282.690037 134.81082,284.698418 134.81082,287.174548 C134.81082,289.647408 132.805711,291.655788 130.32958,291.655788 C127.85345,291.655788 125.84507,289.647408 125.84507,287.174548 C125.84507,284.698418 127.85345,282.690037 130.32958,282.690037 Z M289.862495,282.611339 C292.338626,282.611339 294.347006,284.616449 294.347006,287.092579 C294.347006,289.568709 292.338626,291.57709 289.862495,291.57709 C287.386365,291.57709 285.381256,289.568709 285.381256,287.092579 C285.381256,284.616449 287.386365,282.611339 289.862495,282.611339 Z M89.9239926,282.111629 C92.3992199,282.111629 94.4068679,284.116738 94.4068679,286.592869 C94.4068679,289.068999 92.3992199,291.07738 89.9239926,291.07738 C87.4487653,291.07738 85.4411173,289.068999 85.4411173,286.592869 C85.4411173,284.116738 87.4487653,282.111629 89.9239926,282.111629 Z M68.5258503,283.982955 C71.0036828,283.982955 73.0087256,285.488746 73.0087256,287.346405 C73.0087256,289.201477 71.0036828,290.707268 68.5258503,290.707268 C66.0480177,290.707268 64.0429749,289.201477 64.0429749,287.346405 C64.0429749,285.488746 66.0480177,283.982955 68.5258503,283.982955 Z M110.204146,281.282844 C112.679373,281.282844 114.687021,283.291225 114.687021,285.767355 C114.687021,288.240215 112.679373,290.248595 110.204146,290.248595 C107.728919,290.248595 105.721271,288.240215 105.721271,285.767355 C105.721271,283.291225 107.728919,281.282844 110.204146,281.282844 Z M267.659074,278.811814 C270.135204,278.811814 272.143585,280.816923 272.143585,283.293054 C272.143585,285.769184 270.135204,287.777564 267.659074,287.777564 C265.182944,287.777564 263.177834,285.769184 263.177834,283.293054 C263.177834,280.816923 265.182944,278.811814 267.659074,278.811814 Z M346.388991,277.576298 C348.865591,277.576298 350.871866,279.582574 350.871866,282.059174 C350.871866,284.535773 348.865591,286.542049 346.388991,286.542049 C343.915681,286.542049 341.906116,284.535773 341.906116,282.059174 C341.906116,279.582574 343.915681,277.576298 346.388991,277.576298 Z M245.458923,275.012288 C247.935054,275.012288 249.940163,277.017398 249.940163,279.493528 C249.940163,281.969658 247.935054,283.978039 245.458923,283.978039 C242.982793,283.978039 240.974412,281.969658 240.974412,279.493528 C240.974412,277.017398 242.982793,275.012288 245.458923,275.012288 Z M324.34356,271.540795 C326.81969,271.540795 328.8248,273.545905 328.8248,276.022035 C328.8248,278.498165 326.81969,280.506546 324.34356,280.506546 C321.867429,280.506546 319.859049,278.498165 319.859049,276.022035 C319.859049,273.545905 321.867429,271.540795 324.34356,271.540795 Z M223.253866,271.212763 C225.729094,271.212763 227.736742,273.217872 227.736742,275.694003 C227.736742,278.170133 225.729094,280.178513 223.253866,280.178513 C220.778639,280.178513 218.770991,278.170133 218.770991,275.694003 C218.770991,273.217872 220.778639,271.212763 223.253866,271.212763 Z M203.128432,269.80557 C205.604562,269.80557 207.612943,271.81395 207.612943,274.29008 C207.612943,276.76294 205.604562,278.77132 203.128432,278.77132 C200.652302,278.77132 198.647192,276.76294 198.647192,274.29008 C198.647192,271.81395 200.652302,269.80557 203.128432,269.80557 Z M302.140138,267.74127 C304.616268,267.74127 306.621378,269.746379 306.621378,272.22251 C306.621378,274.69864 304.616268,276.70702 302.140138,276.70702 C299.664008,276.70702 297.655627,274.69864 297.655627,272.22251 C297.655627,269.746379 299.664008,267.74127 302.140138,267.74127 Z M183.164259,266.162399 C185.640389,266.162399 187.645499,268.167508 187.645499,270.643639 C187.645499,273.119769 185.640389,275.12815 183.164259,275.12815 C180.688129,275.12815 178.679748,273.119769 178.679748,270.643639 C178.679748,268.167508 180.688129,266.162399 183.164259,266.162399 Z M163.04046,264.755206 C165.516591,264.755206 167.5217,266.763586 167.5217,269.239717 C167.5217,271.712576 165.516591,273.720956 163.04046,273.720956 C160.56433,273.720956 158.55595,271.712576 158.55595,269.239717 C158.55595,266.763586 160.56433,264.755206 163.04046,264.755206 Z M122.634873,264.176797 C125.1101,264.176797 127.117748,266.185178 127.117748,268.661308 C127.117748,271.134167 125.1101,273.142548 122.634873,273.142548 C120.159645,273.142548 118.151997,271.134167 118.151997,268.661308 C118.151997,266.185178 120.159645,264.176797 122.634873,264.176797 Z M279.936717,263.941744 C282.412847,263.941744 284.417956,265.950125 284.417956,268.426255 C284.417956,270.899114 282.412847,272.907495 279.936717,272.907495 C277.460586,272.907495 275.452206,270.899114 275.452206,268.426255 C275.452206,265.950125 277.460586,263.941744 279.936717,263.941744 Z M82.2309204,263.598389 C84.7042309,263.598389 86.7137957,265.604665 86.7137957,268.081264 C86.7137957,270.557864 84.7042309,272.564139 82.2309204,272.564139 C79.7543208,272.564139 77.748045,270.557864 77.748045,268.081264 C77.748045,265.604665 79.7543208,263.598389 82.2309204,263.598389 Z M142.913391,263.348013 C145.389521,263.348013 147.397901,265.356393 147.397901,267.832524 C147.397901,270.305383 145.389521,272.313763 142.913391,272.313763 C140.43726,272.313763 138.432151,270.305383 138.432151,267.832524 C138.432151,265.356393 140.43726,263.348013 142.913391,263.348013 Z M102.511074,262.769604 C104.986301,262.769604 106.993949,264.777985 106.993949,267.254115 C106.993949,269.726974 104.986301,271.735355 102.511074,271.735355 C100.035847,271.735355 98.0281985,269.726974 98.0281985,267.254115 C98.0281985,264.777985 100.035847,262.769604 102.511074,262.769604 Z M257.733295,260.142219 C260.209425,260.142219 262.214535,262.147328 262.214535,264.623459 C262.214535,267.099589 260.209425,269.107969 257.733295,269.107969 C255.257165,269.107969 253.248784,267.099589 253.248784,264.623459 C253.248784,262.147328 255.257165,260.142219 257.733295,260.142219 Z M334.380318,256.514371 C336.854785,256.514371 338.863194,258.52278 338.863194,260.997246 C338.863194,263.471713 336.854785,265.480122 334.380318,265.480122 C331.905852,265.480122 329.897443,263.471713 329.897443,260.997246 C329.897443,258.52278 331.905852,256.514371 334.380318,256.514371 Z M235.529873,256.342693 C238.006004,256.342693 240.011113,258.347803 240.011113,260.823933 C240.011113,263.300063 238.006004,265.308444 235.529873,265.308444 C233.053743,265.308444 231.045363,263.300063 231.045363,260.823933 C231.045363,258.347803 233.053743,256.342693 235.529873,256.342693 Z M312.178532,252.714845 C314.654663,252.714845 316.659772,254.723226 316.659772,257.199356 C316.659772,259.672216 314.654663,261.680596 312.178532,261.680596 C309.702402,261.680596 307.694021,259.672216 307.694021,257.199356 C307.694021,254.723226 309.702402,252.714845 312.178532,252.714845 Z M215.562429,252.699522 C218.03856,252.699522 220.043669,254.707903 220.043669,257.184033 C220.043669,259.656893 218.03856,261.665273 215.562429,261.665273 C213.086299,261.665273 211.077919,259.656893 211.077919,257.184033 C211.077919,254.707903 213.086299,252.699522 215.562429,252.699522 Z M292.051463,251.307652 C294.527593,251.307652 296.535973,253.316033 296.535973,255.792163 C296.535973,258.265023 294.527593,260.273403 292.051463,260.273403 C289.575332,260.273403 287.570223,258.265023 287.570223,255.792163 C287.570223,253.316033 289.575332,251.307652 292.051463,251.307652 Z M195.436995,251.292329 C197.912223,251.292329 199.919871,253.297439 199.919871,255.773569 C199.919871,258.2497 197.912223,260.25808 195.436995,260.25808 C192.961768,260.25808 190.95412,258.2497 190.95412,255.773569 C190.95412,253.297439 192.961768,251.292329 195.436995,251.292329 Z M269.848041,247.508127 C272.324171,247.508127 274.332552,249.516507 274.332552,251.992638 C274.332552,254.465497 272.324171,256.473877 269.848041,256.473877 C267.371911,256.473877 265.366801,254.465497 265.366801,251.992638 C265.366801,249.516507 267.371911,247.508127 269.848041,247.508127 Z M173.231938,247.492804 C175.708069,247.492804 177.716449,249.501184 177.716449,251.977315 C177.716449,254.450174 175.708069,256.458555 173.231938,256.458555 C170.755808,256.458555 168.750698,254.450174 168.750698,251.977315 C168.750698,249.501184 170.755808,247.492804 173.231938,247.492804 Z M153.109775,246.085611 C155.585002,246.085611 157.59265,248.093991 157.59265,250.570122 C157.59265,253.042981 155.585002,255.051361 153.109775,255.051361 C150.634548,255.051361 148.6269,253.042981 148.6269,250.570122 C148.6269,248.093991 150.634548,246.085611 153.109775,246.085611 Z M112.707458,245.507202 C115.183589,245.507202 117.188698,247.515583 117.188698,249.991713 C117.188698,252.464572 115.183589,254.472953 112.707458,254.472953 C110.231328,254.472953 108.222947,252.464572 108.222947,249.991713 C108.222947,247.515583 110.231328,245.507202 112.707458,245.507202 Z M132.985976,244.678418 C135.461204,244.678418 137.468852,246.686798 137.468852,249.162928 C137.468852,251.635788 135.461204,253.644168 132.985976,253.644168 C130.510749,253.644168 128.503101,251.635788 128.503101,249.162928 C128.503101,246.686798 130.510749,244.678418 132.985976,244.678418 Z M92.582024,244.100009 C95.056017,244.100009 97.0648993,246.108153 97.0648993,248.581236 C97.0648993,251.057616 95.056017,253.06576 92.582024,253.06576 C90.1047323,253.06576 88.0991487,251.057616 88.0991487,248.581236 C88.0991487,246.108153 90.1047323,244.100009 92.582024,244.100009 Z M247.800974,241.472624 C250.277104,241.472624 252.285485,243.481004 252.285485,245.957134 C252.285485,248.429994 250.277104,250.438374 247.800974,250.438374 C245.324844,250.438374 243.319734,248.429994 243.319734,245.957134 C243.319734,243.481004 245.324844,241.472624 247.800974,241.472624 Z M227.83353,237.829453 C230.309661,237.829453 232.318041,239.834562 232.318041,242.310693 C232.318041,244.786823 230.309661,246.795204 227.83353,246.795204 C225.3574,246.795204 223.35229,244.786823 223.35229,242.310693 C223.35229,239.834562 225.3574,237.829453 227.83353,237.829453 Z M322.213655,237.688421 C324.689786,237.688421 326.698166,239.696802 326.698166,242.172932 C326.698166,244.645791 324.689786,246.654172 322.213655,246.654172 C319.737525,246.654172 317.732415,244.645791 317.732415,242.172932 C317.732415,239.696802 319.737525,237.688421 322.213655,237.688421 Z M302.093128,236.281228 C304.569258,236.281228 306.574367,238.289609 306.574367,240.765739 C306.574367,243.238598 304.569258,245.246979 302.093128,245.246979 C299.616997,245.246979 297.608617,243.238598 297.608617,240.765739 C297.608617,238.289609 299.616997,236.281228 302.093128,236.281228 Z M207.867722,234.186282 C210.342949,234.186282 212.350597,236.191392 212.350597,238.667522 C212.350597,241.143652 210.342949,243.152033 207.867722,243.152033 C205.392494,243.152033 203.384846,241.143652 203.384846,238.667522 C203.384846,236.191392 205.392494,234.186282 207.867722,234.186282 Z M282.122413,232.638057 C284.598543,232.638057 286.606923,234.643167 286.606923,237.119297 C286.606923,239.595427 284.598543,241.603808 282.122413,241.603808 C279.646282,241.603808 277.641173,239.595427 277.641173,237.119297 C277.641173,234.643167 279.646282,232.638057 282.122413,232.638057 Z M185.662665,230.386757 C188.138795,230.386757 190.147176,232.391866 190.147176,234.867997 C190.147176,237.344127 188.138795,239.352507 185.662665,239.352507 C183.186534,239.352507 181.181425,237.344127 181.181425,234.867997 C181.181425,232.391866 183.186534,230.386757 185.662665,230.386757 Z M165.540501,228.979564 C168.015729,228.979564 170.023377,230.984673 170.023377,233.460803 C170.023377,235.936934 168.015729,237.945314 165.540501,237.945314 C163.065274,237.945314 161.057626,235.936934 161.057626,233.460803 C161.057626,230.984673 163.065274,228.979564 165.540501,228.979564 Z M259.918991,228.838532 C262.395121,228.838532 264.403502,230.846912 264.403502,233.323043 C264.403502,235.795902 262.395121,237.804282 259.918991,237.804282 C257.442861,237.804282 255.437751,235.795902 255.437751,233.323043 C255.437751,230.846912 257.442861,228.838532 259.918991,228.838532 Z M105.01275,226.993962 C107.48862,226.993962 109.495626,229.000213 109.495626,231.475151 C109.495626,233.95009 107.48862,235.959713 105.01275,235.959713 C102.536881,235.959713 100.529875,233.95009 100.529875,231.475151 C100.529875,229.000213 102.536881,226.993962 105.01275,226.993962 Z M125.294539,226.165177 C127.77067,226.165177 129.775779,228.173558 129.775779,230.649688 C129.775779,233.122548 127.77067,235.130928 125.294539,235.130928 C122.818409,235.130928 120.810029,233.122548 120.810029,230.649688 C120.810029,228.173558 122.818409,226.165177 125.294539,226.165177 Z M145.571422,225.336393 C148.047552,225.336393 150.055933,227.341502 150.055933,229.817633 C150.055933,232.293763 148.047552,234.302144 145.571422,234.302144 C143.095292,234.302144 141.090182,232.293763 141.090182,229.817633 C141.090182,227.341502 143.095292,225.336393 145.571422,225.336393 Z M240.109537,222.959383 C242.584765,222.959383 244.592413,224.964493 244.592413,227.440623 C244.592413,229.916754 242.584765,231.925134 240.109537,231.925134 C237.63431,231.925134 235.626662,229.916754 235.626662,227.440623 C235.626662,224.964493 237.63431,222.959383 240.109537,222.959383 Z M310.050263,218.862471 C312.526175,218.862471 314.533139,220.87017 314.533139,223.346987 C314.533139,225.823804 312.526175,227.828222 310.050263,227.828222 C307.574352,227.828222 305.567388,225.823804 305.567388,223.346987 C305.567388,220.87017 307.574352,218.862471 310.050263,218.862471 Z M220.296813,217.080235 C222.772943,217.080235 224.781324,219.088616 224.781324,221.564746 C224.781324,224.037605 222.772943,226.045986 220.296813,226.045986 C217.820682,226.045986 215.815573,224.037605 215.815573,221.564746 C215.815573,219.088616 217.820682,217.080235 220.296813,217.080235 Z M197.938672,215.516687 C200.413899,215.516687 202.421547,217.525068 202.421547,220.001198 C202.421547,222.474057 200.413899,224.482438 197.938672,224.482438 C195.463445,224.482438 193.455797,222.474057 193.455797,220.001198 C193.455797,217.525068 195.463445,215.516687 197.938672,215.516687 Z M292.318797,215.375655 C294.794024,215.375655 296.801672,217.384036 296.801672,219.860166 C296.801672,222.333026 294.794024,224.341406 292.318797,224.341406 C289.84357,224.341406 287.835922,222.333026 287.835922,219.860166 C287.835922,217.384036 289.84357,215.375655 292.318797,215.375655 Z M272.196634,213.968462 C274.672764,213.968462 276.677874,215.973572 276.677874,218.452973 C276.677874,220.925832 274.672764,222.934213 272.196634,222.934213 C269.720503,222.934213 267.712123,220.925832 267.712123,218.452973 C267.712123,215.973572 269.720503,213.968462 272.196634,213.968462 Z M177.971228,211.873516 C180.446455,211.873516 182.454103,213.878626 182.454103,216.354756 C182.454103,218.830887 180.446455,220.839267 177.971228,220.839267 C175.496001,220.839267 173.488353,218.830887 173.488353,216.354756 C173.488353,213.878626 175.496001,211.873516 177.971228,211.873516 Z M155.766171,208.073991 C158.242301,208.073991 160.250682,210.082371 160.250682,212.558502 C160.250682,215.031361 158.242301,217.039742 155.766171,217.039742 C153.290041,217.039742 151.284931,215.031361 151.284931,212.558502 C151.284931,210.082371 153.290041,208.073991 155.766171,208.073991 Z M250.149567,207.932959 C252.625697,207.932959 254.630807,209.94134 254.630807,212.41747 C254.630807,214.890329 252.625697,216.89871 250.149567,216.89871 C247.673437,216.89871 245.665056,214.890329 245.665056,212.41747 C245.665056,209.94134 247.673437,207.932959 250.149567,207.932959 Z M135.644008,206.666798 C138.119235,206.666798 140.126883,208.671907 140.126883,211.148038 C140.126883,213.624168 138.119235,215.632549 135.644008,215.632549 C133.16878,215.632549 131.161132,213.624168 131.161132,211.148038 C131.161132,208.671907 133.16878,206.666798 135.644008,206.666798 Z M115.520209,205.259605 C117.995624,205.259605 120.003084,207.267065 120.003084,209.74248 C120.003084,212.217895 117.995624,214.225355 115.520209,214.225355 C113.044794,214.225355 111.037334,212.217895 111.037334,209.74248 C111.037334,207.267065 113.044794,205.259605 115.520209,205.259605 Z M302.357191,200.349231 C304.833102,200.349231 306.840066,202.356929 306.840066,204.833747 C306.840066,207.310564 304.833102,209.314982 302.357191,209.314982 C299.88128,209.314982 297.874316,207.310564 297.874316,204.833747 C297.874316,202.356929 299.88128,200.349231 302.357191,200.349231 Z M232.729175,199.974188 C235.204402,199.974188 237.21205,201.979297 237.21205,204.455428 C237.21205,206.931558 235.204402,208.939939 232.729175,208.939939 C230.253947,208.939939 228.246299,206.931558 228.246299,204.455428 C228.246299,201.979297 230.253947,199.974188 232.729175,199.974188 Z M212.603741,198.566995 C215.079871,198.566995 217.088251,200.575375 217.088251,203.051506 C217.088251,205.524365 215.079871,207.532745 212.603741,207.532745 C210.130881,207.532745 208.122501,205.524365 208.122501,203.051506 C208.122501,200.575375 210.130881,198.566995 212.603741,198.566995 Z M282.388112,196.70606 C284.864242,196.70606 286.872622,198.714441 286.872622,201.190571 C286.872622,203.663431 284.864242,205.671811 282.388112,205.671811 C279.911981,205.671811 277.906872,203.663431 277.906872,201.190571 C277.906872,198.714441 279.911981,196.70606 282.388112,196.70606 Z M262.267584,195.298867 C264.743714,195.298867 266.748824,197.307248 266.748824,199.783378 C266.748824,202.256237 264.743714,204.264618 262.267584,204.264618 C259.791454,204.264618 257.783073,202.256237 257.783073,199.783378 C257.783073,197.307248 259.791454,195.298867 262.267584,195.298867 Z M190.40359,194.767469 C192.87972,194.767469 194.88483,196.772579 194.88483,199.25198 C194.88483,201.724839 192.87972,203.73322 190.40359,203.73322 C187.92746,203.73322 185.919079,201.724839 185.919079,199.25198 C185.919079,196.772579 187.92746,194.767469 190.40359,194.767469 Z M170.279791,193.360276 C172.755922,193.360276 174.761031,195.368657 174.761031,197.844787 C174.761031,200.317646 172.755922,202.326027 170.279791,202.326027 C167.803661,202.326027 165.79528,200.317646 165.79528,197.844787 C165.79528,195.368657 167.803661,193.360276 170.279791,193.360276 Z M145.995111,187.168418 C148.470339,187.168418 150.477987,189.176799 150.477987,191.649658 C150.477987,194.125788 148.470339,196.134169 145.995111,196.134169 C143.519884,196.134169 141.512236,194.125788 141.512236,191.649658 C141.512236,189.176799 143.519884,187.168418 145.995111,187.168418 Z M127.066127,185.842133 C128.923627,185.842133 130.429635,187.348747 130.429635,189.204289 C130.429635,191.062536 128.923627,192.566446 127.066127,192.566446 C125.208627,192.566446 123.705322,191.062536 123.705322,189.204289 C123.705322,187.348747 125.208627,185.842133 127.066127,185.842133 Z M247.394243,183.024496 C249.870374,183.024496 251.878754,185.032876 251.878754,187.509006 C251.878754,189.981866 249.870374,191.990246 247.394243,191.990246 C244.918113,191.990246 242.913004,189.981866 242.913004,187.509006 C242.913004,185.032876 244.918113,183.024496 247.394243,183.024496 Z M290.192164,181.523281 C292.668075,181.523281 294.675039,183.53098 294.675039,186.007797 C294.675039,188.484614 292.668075,190.489032 290.192164,190.489032 C287.716252,190.489032 285.709288,188.484614 285.709288,186.007797 C285.709288,183.53098 287.716252,181.523281 290.192164,181.523281 Z M225.036102,181.460948 C227.51133,181.460948 229.518978,183.466057 229.518978,185.942188 C229.518978,188.418318 227.51133,190.426698 225.036102,190.426698 C222.560875,190.426698 220.553227,188.418318 220.553227,185.942188 C220.553227,183.466057 222.560875,181.460948 225.036102,181.460948 Z M270.07,180.116088 C272.546131,180.116088 274.55124,182.124469 274.55124,184.600599 C274.55124,187.073458 272.546131,189.081839 270.07,189.081839 C267.59387,189.081839 265.585489,187.073458 265.585489,184.600599 C265.585489,182.124469 267.59387,180.116088 270.07,180.116088 Z M205.068659,177.817777 C207.543886,177.817777 209.551534,179.822886 209.551534,182.299017 C209.551534,184.775147 207.543886,186.783528 205.068659,186.783528 C202.593431,186.783528 200.585783,184.775147 200.585783,182.299017 C200.585783,179.822886 202.593431,177.817777 205.068659,177.817777 Z M182.708882,176.254229 C185.184109,176.254229 187.191758,178.259339 187.191758,180.73874 C187.191758,183.211599 185.184109,185.21998 182.708882,185.21998 C180.233655,185.21998 178.226007,183.211599 178.226007,180.73874 C178.226007,178.259339 180.233655,176.254229 182.708882,176.254229 Z M160.350741,174.690681 C162.826872,174.690681 164.831981,176.695791 164.831981,179.171921 C164.831981,181.648051 162.826872,183.656432 160.350741,183.656432 C157.874611,183.656432 155.86623,181.648051 155.86623,179.171921 C155.86623,176.695791 157.874611,174.690681 160.350741,174.690681 Z M138.458394,166.4192 C140.935249,166.4192 142.941269,168.425221 142.941269,170.902076 C142.941269,173.375615 140.935249,175.384951 138.458394,175.384951 C135.981539,175.384951 133.975518,173.375615 133.975518,170.902076 C133.975518,168.425221 135.981539,166.4192 138.458394,166.4192 Z M237.468464,164.354901 C239.944595,164.354901 241.949704,166.363281 241.949704,168.839411 C241.949704,171.312271 239.944595,173.320651 237.468464,173.320651 C234.992334,173.320651 232.983954,171.312271 232.983954,168.839411 C232.983954,166.363281 234.992334,164.354901 237.468464,164.354901 Z M257.745347,163.526116 C260.221477,163.526116 262.229858,165.531225 262.229858,168.010627 C262.229858,170.483486 260.221477,172.491867 257.745347,172.491867 C255.269217,172.491867 253.264107,170.483486 253.264107,168.010627 C253.264107,165.531225 255.269217,163.526116 257.745347,163.526116 Z M217.344666,162.947707 C219.820796,162.947707 221.825906,164.952817 221.825906,167.428947 C221.825906,169.905078 219.820796,171.913458 217.344666,171.913458 C214.868535,171.913458 212.860155,169.905078 212.860155,167.428947 C212.860155,164.952817 214.868535,162.947707 217.344666,162.947707 Z M278.027136,162.697331 C280.503047,162.697331 282.510011,164.70503 282.510011,167.181847 C282.510011,169.658664 280.503047,171.663082 278.027136,171.663082 C275.551225,171.663082 273.544261,169.658664 273.544261,167.181847 C273.544261,164.70503 275.551225,162.697331 278.027136,162.697331 Z M197.377222,159.304537 C199.853352,159.304537 201.858462,161.312917 201.858462,163.789048 C201.858462,166.261907 199.853352,168.270287 197.377222,168.270287 C194.901091,168.270287 192.892711,166.261907 192.892711,163.789048 C192.892711,161.312917 194.901091,159.304537 197.377222,159.304537 Z M177.253423,157.897344 C179.729553,157.897344 181.734663,159.905724 181.734663,162.381854 C181.734663,164.854714 179.729553,166.863094 177.253423,166.863094 C174.777293,166.863094 172.768912,164.854714 172.768912,162.381854 C172.768912,159.905724 174.777293,157.897344 177.253423,157.897344 Z M154.892011,156.333796 C157.367238,156.333796 159.374887,158.342176 159.374887,160.818307 C159.374887,163.291166 157.367238,165.299546 154.892011,165.299546 C152.416784,165.299546 150.409136,163.291166 150.409136,160.818307 C150.409136,158.342176 152.416784,156.333796 154.892011,156.333796 Z M247.816297,144.856521 C250.292427,144.856521 252.300808,146.864901 252.300808,149.341032 C252.300808,151.813891 250.292427,153.822272 247.816297,153.822272 C245.340167,153.822272 243.335057,151.813891 243.335057,149.341032 C243.335057,146.864901 245.340167,144.856521 247.816297,144.856521 Z M268.098086,144.027736 C270.573998,144.027736 272.580961,146.035435 272.580961,148.512252 C272.580961,150.989069 270.573998,152.993487 268.098086,152.993487 C265.622175,152.993487 263.615211,150.989069 263.615211,148.512252 C263.615211,146.035435 265.622175,144.027736 268.098086,144.027736 Z M229.928476,143.605683 C232.404606,143.605683 234.412987,145.610792 234.412987,148.086922 C234.412987,150.563053 232.404606,152.571433 229.928476,152.571433 C227.452346,152.571433 225.447236,150.563053 225.447236,148.086922 C225.447236,145.610792 227.452346,143.605683 229.928476,143.605683 Z M209.804677,142.19849 C212.280808,142.19849 214.289188,144.203599 214.289188,146.679729 C214.289188,149.15586 212.280808,151.16424 209.804677,151.16424 C207.328547,151.16424 205.323437,149.15586 205.323437,146.679729 C205.323437,144.203599 207.328547,142.19849 209.804677,142.19849 Z M189.837233,138.555319 C192.313364,138.555319 194.321744,140.563699 194.321744,143.03983 C194.321744,145.512689 192.313364,147.521069 189.837233,147.521069 C187.361103,147.521069 185.355993,145.512689 185.355993,143.03983 C185.355993,140.563699 187.361103,138.555319 189.837233,138.555319 Z M150.476309,140.293795 C152.332055,140.293795 153.836885,141.798625 153.836885,143.657533 C153.836885,145.513279 152.332055,147.018108 150.476309,147.018108 C148.617401,147.018108 147.112572,145.513279 147.112572,143.657533 C147.112572,141.798625 148.617401,140.293795 150.476309,140.293795 Z M169.71507,137.148126 C172.190297,137.148126 174.197945,139.156506 174.197945,141.632637 C174.197945,144.105496 172.190297,146.113876 169.71507,146.113876 C167.239843,146.113876 165.232195,144.105496 165.232195,141.632637 C165.232195,139.156506 167.239843,137.148126 169.71507,137.148126 Z M258.169036,125.358141 C260.644948,125.358141 262.651912,127.36584 262.651912,129.842657 C262.651912,132.319474 260.644948,134.323892 258.169036,134.323892 C255.693125,134.323892 253.686161,132.319474 253.686161,129.842657 C253.686161,127.36584 255.693125,125.358141 258.169036,125.358141 Z M220.002697,124.936088 C222.478827,124.936088 224.483937,126.944468 224.483937,129.420598 C224.483937,131.893458 222.478827,133.901838 220.002697,133.901838 C217.526567,133.901838 215.518186,131.893458 215.518186,129.420598 C215.518186,126.944468 217.526567,124.936088 220.002697,124.936088 Z M238.043602,123.950948 C240.519732,123.950948 242.528113,125.959329 242.528113,128.435459 C242.528113,130.908318 240.519732,132.916699 238.043602,132.916699 C235.567472,132.916699 233.562362,130.908318 233.562362,128.435459 C233.562362,125.959329 235.567472,123.950948 238.043602,123.950948 Z M202.424315,119.213294 C204.900445,119.213294 206.908825,121.218404 206.908825,123.694534 C206.908825,126.170664 204.900445,128.179045 202.424315,128.179045 C199.948184,128.179045 197.943075,126.170664 197.943075,123.694534 C197.943075,121.218404 199.948184,119.213294 202.424315,119.213294 Z M165.297787,121.108125 C167.1545,121.108125 168.659943,122.613569 168.659943,124.470282 C168.659943,126.326995 167.1545,127.832438 165.297787,127.832438 C163.441074,127.832438 161.93563,126.326995 161.93563,124.470282 C161.93563,122.613569 163.441074,121.108125 165.297787,121.108125 Z M184.538129,117.962456 C187.013356,117.962456 189.021004,119.967565 189.021004,122.446967 C189.021004,124.919826 187.013356,126.928206 184.538129,126.928206 C182.062902,126.928206 180.055254,124.919826 180.055254,122.446967 C180.055254,119.967565 182.062902,117.962456 184.538129,117.962456 Z M221.408255,104.812289 C223.883482,104.812289 225.89113,106.817398 225.89113,109.293529 C225.89113,111.769659 223.883482,113.77804 221.408255,113.77804 C218.933027,113.77804 216.925379,111.769659 216.925379,109.293529 C216.925379,106.817398 218.933027,104.812289 221.408255,104.812289 Z M243.92275,104.139859 C246.398881,104.139859 248.407261,106.144969 248.407261,108.621099 C248.407261,111.097229 246.398881,113.10561 243.92275,113.10561 C241.44662,113.10561 239.441511,111.097229 239.441511,108.621099 C239.441511,106.144969 241.44662,104.139859 243.92275,104.139859 Z M199.203198,101.012763 C201.679328,101.012763 203.687708,103.021144 203.687708,105.497274 C203.687708,107.970134 201.679328,109.978514 199.203198,109.978514 C196.727067,109.978514 194.721958,107.970134 194.721958,105.497274 C194.721958,103.021144 196.727067,101.012763 199.203198,101.012763 Z M176.845057,99.4492155 C179.321182,99.4492155 181.327932,101.455965 181.327932,103.932091 C181.327932,106.408216 179.321182,108.414966 176.845057,108.414966 C174.368931,108.414966 172.362181,106.408216 172.362181,103.932091 C172.362181,101.455965 174.368931,99.4492155 176.845057,99.4492155 Z M231.760994,85.3139093 C234.237124,85.3139093 236.242234,87.3222898 236.242234,89.7951491 C236.242234,92.2712795 234.237124,94.27966 231.760994,94.27966 C229.284863,94.27966 227.276483,92.2712795 227.276483,89.7951491 C227.276483,87.3222898 229.284863,85.3139093 231.760994,85.3139093 Z M211.637195,83.9067162 C214.110054,83.9067162 216.118435,85.9150967 216.118435,88.391227 C216.118435,90.8640864 214.110054,92.8724669 211.637195,92.8724669 C209.161065,92.8724669 207.152684,90.8640864 207.152684,88.391227 C207.152684,85.9150967 209.161065,83.9067162 211.637195,83.9067162 Z M187.19616,79.9508359 C189.671829,79.9508359 191.679036,81.9588083 191.679036,84.4354216 C191.679036,86.9086142 189.671829,88.9165866 187.19616,88.9165866 C184.720492,88.9165866 182.713285,86.9086142 182.713285,84.4354216 C182.713285,81.9588083 184.720492,79.9508359 187.19616,79.9508359 Z M199.626887,62.8447888 C202.102798,62.8447888 204.109762,64.852487 204.109762,67.3293044 C204.109762,69.8061217 202.102798,71.8105394 199.626887,71.8105394 C197.150975,71.8105394 195.144012,69.8061217 195.144012,67.3293044 C195.144012,64.852487 197.150975,62.8447888 199.626887,62.8447888 Z M219.908676,62.0160042 C222.381535,62.0160042 224.389916,64.0243847 224.389916,66.500515 C224.389916,68.9733744 222.381535,70.9817549 219.908676,70.9817549 C217.432546,70.9817549 215.424165,68.9733744 215.424165,66.500515 C215.424165,64.0243847 217.432546,62.0160042 219.908676,62.0160042 Z M209.060352,40.6976478 C210.903934,40.6976478 212.397292,42.1910056 212.397292,44.0345881 C212.397292,45.8781706 210.903934,47.3715284 209.060352,47.3715284 C207.216769,47.3715284 205.723412,45.8781706 205.723412,44.0345881 C205.723412,42.1910056 207.216769,40.6976478 209.060352,40.6976478 Z" id="Fill-2" transform="translate(210.502769, 195.697648) rotate(-165.000000) translate(-210.502769, -195.697648) "></path>
                </g>
            </g>
        </g>
    </g>
</svg>