<?xml version="1.0" encoding="UTF-8"?>
<svg width="24px" height="24px" viewBox="0 0 24 24" version="1.1" xmlns="http://www.w3.org/2000/svg" xmlns:xlink="http://www.w3.org/1999/xlink">
    <!-- Generator: Sketch 64 (93537) - https://sketch.com -->
    <title>Icon University</title>
    <desc>Created with Sketch.</desc>
    <defs>
        <path d="M3,20.6672131 C2.61340068,20.6672131 2.3,20.3538124 2.3,19.9672131 C2.3,19.6128304 2.56334362,19.3199549 2.90501415,19.2736033 L3,19.2672131 L3.585,19.267 L3.585,12.183 L3,12.1836066 C2.61340068,12.1836066 2.3,11.8702059 2.3,11.4836066 C2.3,11.1292238 2.56334362,10.8363483 2.90501415,10.7899967 L3,10.7836066 L4.26725661,10.7831638 C4.63579499,7.46800934 7.59466203,4.88188238 11.2990085,4.58979608 L11.3,3 C11.3,2.61340068 11.6134007,2.3 12,2.3 C12.3543827,2.3 12.6472582,2.56334362 12.6936098,2.90501415 L12.7,3 L12.6999933,4.58971743 C16.4048064,4.88141781 19.3641719,7.46771156 19.7327434,10.7831638 L21,10.7836066 C21.3865993,10.7836066 21.7,11.0970072 21.7,11.4836066 C21.7,11.8379893 21.4366564,12.1308648 21.0949859,12.1772164 L21,12.1836066 L20.414,12.183 L20.414,19.267 L21,19.2672131 C21.3865993,19.2672131 21.7,19.5806138 21.7,19.9672131 C21.7,20.3215958 21.4366564,20.6144713 21.0949859,20.6608229 L21,20.6672131 L3,20.6672131 Z M7.442,12.183 L4.985,12.183 L4.985,19.267 L7.442,19.267 L7.442,12.183 Z M11.299,12.183 L8.842,12.183 L8.842,19.267 L11.299,19.267 L11.299,12.183 Z M15.157,12.183 L12.699,12.183 L12.699,19.267 L15.157,19.267 L15.157,12.183 Z M19.014,12.183 L16.557,12.183 L16.557,19.267 L19.014,19.267 L19.014,12.183 Z M12,5.96229508 C8.7236397,5.96229508 6.0724021,8.07010217 5.67896021,10.783354 L18.3210398,10.783354 C17.9275979,8.07010217 15.2763603,5.96229508 12,5.96229508 Z" id="path-1"></path>
    </defs>
    <g id="Icon/University" stroke="none" stroke-width="1" fill="none" fill-rule="evenodd">
        <mask id="mask-2" fill="white">
            <use xlink:href="#path-1"></use>
        </mask>
        <use id="Mask" fill="#111111" fill-rule="nonzero" xlink:href="#path-1"></use>
        <g id="Basics/Color/Black/700" mask="url(#mask-2)" fill="currentColor">
            <rect id="Rectangle" x="0" y="0" width="24" height="24"></rect>
        </g>
    </g>
</svg>